<svg width="71" height="51" viewBox="0 0 71 51" fill="none" xmlns="http://www.w3.org/2000/svg">
<g clip-path="url(#clip0_17_9)">
<path d="M47.1902 2.00003L25 24.7789L47.1902 47.5578L69.3804 24.7789L47.1902 2.00003Z" stroke="url(#paint0_linear_17_9)" stroke-width="3"/>
<path d="M36.2836 1.00005L12 25.9279L36.2836 50.8557L60.5672 25.9279L36.2836 1.00005Z" fill="url(#paint1_linear_17_9)"/>
<path d="M25.1902 3.00003L3 25.7789L25.1902 48.5578L47.3804 25.7789L25.1902 3.00003Z" stroke="url(#paint2_linear_17_9)" stroke-width="3"/>
<path d="M18 37.5V15.1562H28C32.5624 15.1562 34.8437 17.2552 34.8437 21.4531C34.8437 26.0052 31.7239 28.7604 25.4843 29.7188L24.8906 26.0312C28.6406 25.3543 30.5156 23.8698 30.5156 21.5781C30.5156 19.724 29.5885 18.7969 27.7343 18.7969H22.1406V37.5H18Z" fill="#0D1117"/>
<path d="M37.6093 36.5625V32.8125C39.8489 33.6458 42.3802 34.0625 45.2031 34.0625C48.6302 34.0625 50.3437 32.9167 50.3437 30.625C50.3437 28.9583 49.2916 28.125 47.1874 28.125H43.6874C39.1145 28.125 36.8281 26.0417 36.8281 21.875C36.8281 17.2917 40.0833 15 46.5937 15C49.0937 15 51.4635 15.3646 53.7031 16.0938V19.8438C51.4635 19.0104 49.0937 18.5938 46.5937 18.5938C42.8437 18.5938 40.9687 19.6875 40.9687 21.875C40.9687 23.5417 41.875 24.375 43.6874 24.375H47.1874C52.052 24.375 54.4843 26.4583 54.4843 30.625C54.4843 35.3125 51.3906 37.6562 45.2031 37.6562C42.3802 37.6562 39.8489 37.2917 37.6093 36.5625Z" fill="#0D1117"/>
</g>
<defs>
<linearGradient id="paint0_linear_17_9" x1="59.9647" y1="13.8145" x2="35.0454" y2="38.0898" gradientUnits="userSpaceOnUse">
<stop offset="0.14" stop-color="#37CDFF"/>
<stop offset="1" stop-color="#FF4B4E"/>
</linearGradient>
<linearGradient id="paint1_linear_17_9" x1="48.4254" y1="13.464" x2="23.5061" y2="37.7392" gradientUnits="userSpaceOnUse">
<stop stop-color="#FF4B4E"/>
<stop offset="0.86" stop-color="#37CDFF"/>
</linearGradient>
<linearGradient id="paint2_linear_17_9" x1="37.9647" y1="14.8145" x2="13.0454" y2="39.0898" gradientUnits="userSpaceOnUse">
<stop offset="0.14" stop-color="#37CDFF"/>
<stop offset="1" stop-color="#FF4B4E"/>
</linearGradient>
<clipPath id="clip0_17_9">
<rect width="71" height="51" fill="white"/>
</clipPath>
</defs>
</svg>
